<?xml version="1.0" encoding="utf-8"?>
<!-- Generator: Adobe Illustrator 25.0.0, SVG Export Plug-In . SVG Version: 6.00 Build 0)  -->
<svg version="1.1" xmlns="http://www.w3.org/2000/svg" xmlns:xlink="http://www.w3.org/1999/xlink" x="0px" y="0px"
	 viewBox="0 0 640 260" style="enable-background:new 0 0 640 260;" xml:space="preserve">
<style type="text/css">
	.st0{fill:#FFE135;stroke:#06678D;stroke-miterlimit:10;}
	.st1{fill:#06678D;}
	.st2{fill:#D7D6D9;}
	.st3{fill:#FFFFFF;}
	.st4{fill:#FEFEFE;}
	.st5{fill:#F9F8F9;}
	.st6{fill:#B0B0AF;}
</style>
<g id="Layer_1">
	<g>
		<circle class="st0" cx="304.36" cy="144.18" r="68.54"/>
		<polygon class="st0" points="302.39,42.92 304.36,93.18 310.27,43.23 308.29,93.49 318.1,44.16 312.19,94.1 325.84,45.7 
			316.02,95.02 333.43,47.84 319.77,96.24 340.82,50.57 323.41,97.75 347.99,53.87 326.93,99.54 354.87,57.72 330.29,101.6 
			361.42,62.1 333.48,103.92 367.62,66.98 336.48,106.48 373.41,72.34 339.26,109.27 378.76,78.13 341.83,112.27 383.64,84.32 
			344.14,115.46 388.02,90.88 346.2,118.82 391.88,97.76 347.99,122.33 395.18,104.92 349.5,125.97 397.91,112.32 350.72,129.72 
			400.05,119.91 351.64,133.56 401.59,127.64 352.26,137.45 402.51,135.48 352.57,141.38 402.82,143.36 352.57,145.33 
			402.51,151.24 352.26,149.26 401.59,159.07 351.64,153.15 400.05,166.8 350.72,156.99 397.91,174.39 349.5,160.74 395.18,181.79 
			347.99,164.38 391.88,188.95 346.2,167.89 388.02,195.83 344.14,171.25 383.64,202.39 341.83,174.44 378.76,208.58 339.26,177.44 
			373.41,214.37 336.48,180.23 367.62,219.73 333.48,182.79 361.42,224.61 330.29,185.11 354.87,228.99 326.93,187.17 
			347.99,232.84 323.41,188.96 340.82,236.14 319.77,190.47 333.43,238.87 316.02,191.69 325.84,241.01 312.19,192.61 318.1,242.55 
			308.29,193.22 310.27,243.48 304.36,193.53 302.39,243.79 300.42,193.53 294.51,243.48 296.49,193.22 286.68,242.55 
			292.59,192.61 278.94,241.01 288.76,191.69 271.35,238.87 285.01,190.47 263.95,236.14 281.37,188.96 256.79,232.84 
			277.85,187.17 249.91,228.99 274.49,185.11 243.36,224.61 271.3,182.79 237.16,219.73 268.3,180.23 231.37,214.37 265.51,177.44 
			226.02,208.58 262.95,174.44 221.14,202.39 260.63,171.25 216.75,195.83 258.57,167.89 212.9,188.95 256.78,164.38 209.6,181.79 
			255.28,160.74 206.87,174.39 254.06,156.99 204.73,166.8 253.14,153.15 203.19,159.07 252.52,149.26 202.26,151.24 252.21,145.33 
			201.95,143.36 252.21,141.38 202.26,135.48 252.52,137.45 203.19,127.64 253.14,133.56 204.73,119.91 254.06,129.72 
			206.87,112.32 255.28,125.97 209.6,104.92 256.78,122.33 212.9,97.76 258.57,118.82 216.75,90.88 260.63,115.46 221.14,84.32 
			262.95,112.27 226.02,78.13 265.51,109.27 231.37,72.34 268.3,106.48 237.16,66.98 271.3,103.92 243.36,62.1 274.49,101.6 
			249.91,57.72 277.85,99.54 256.79,53.87 281.37,97.75 263.95,50.57 285.01,96.24 271.35,47.84 288.76,95.02 278.94,45.7 
			292.59,94.1 286.68,44.16 296.49,93.49 294.51,43.23 300.42,93.18 		"/>
	</g>
</g>
<g id="Layer_2">
	<g>
		<path class="st1" d="M319.83,174.56c0.03,0.86,0.65,0.83,1.23,0.78c1.94-0.15,3.39-1.17,4.49-2.71c1.23-1.73,2.18-3.61,2.83-5.65
			c0.31-0.97,0.56-1.99,1.22-2.84c0.55,0.32,0.09,0.91,0.48,1.24c0.37-0.43-0.15-1.29,0.73-1.47c0.37,0.16,0.09,0.58,0.26,0.78
			c0.14,0.17-0.25,1.33,0.64,0.39c0.09-0.1,0.3,0.33,0.4,0.58c0.55,1.41,0.81,2.87,0.91,4.38c0.02,0.34-0.21,0.99,0.45,1.07
			c0.51,0.07,0.79-0.35,1.02-0.73c0.63-1.06,1.41-2.08,1.78-3.23c0.29-0.87,1.37-1.15,1.32-2.25c-0.02-0.39,1.08-0.24,1,0.02
			c-0.39,1.26,1.09,0.76,1.28,1.53c0.23,0.94,0.47,1.88,0.54,2.85c0.07,0.92,0.14,1.85,0.1,2.78c-0.04,0.98,0.19,1.75,0.9,2.5
			c1.51,1.58,2.16,3.6,2.56,5.7c0.08,0.41-0.05,0.79-0.23,1.15c-2.15,4.51-4.86,8.58-8.87,11.71c-2.58,2.01-5.62,2.61-8.67,3.31
			c-5.48,1.26-10.98,2.07-16.64,1.95c-3.12-0.07-5.16-1.09-6.84-3.88c-8.77-14.59-21.58-24.5-37.09-31.11
			c-5.68-2.42-11.54-4.29-17.57-5.61c-0.91-0.2-1.3-0.48-1.28-1.52c0.15-7.48,1.7-14.67,4.37-21.64c0.11-0.29,0.22-0.57,0.35-0.93
			c-1.48,0.13-2.91,0.26-4.46,0.4c1.01-2.66,2.84-4.63,4.71-6.55c1.39-1.42,2.84-2.79,4.38-4.04c0.87-0.71,0.66-1.06,0-1.69
			c-3.2-3.03-5.91-6.42-7.76-10.46c-1.51-3.3-1.08-5.18,1.87-7.27c3.47-2.46,7.45-3.3,11.58-3.64c7.41-0.6,14.48,0.81,21.29,3.67
			c0.72,0.3,1.39,0.32,2.17,0.09c8.07-2.41,16.35-3.54,24.74-4.04c1.41-0.08,2.83-0.17,4.22-0.38c2.67-0.4,5.08,0.2,7.29,1.69
			c2.93,1.98,5.81,4.02,8.6,6.2c3.27,2.57,6.95,4.13,11.1,4.49c1.22,0.11,2.2,0.51,2.71,1.75c0.41,1.01,1.32,1.5,2.26,1.91
			c5.34,2.35,10.49,5.04,15.05,8.73c0.86,0.69,1.65,1.46,2.51,2.16c0.52,0.42,0.59,0.77,0.15,1.32c-1.12,1.38-1.33,2.89-1.09,4.7
			c0.44,3.35,0.17,6.59-2.59,9.16c-1.35,1.26-2.42,2.81-3.57,4.27c-1.85,2.34-4.34,3.68-7.06,4.71c-0.68,0.26-1.33,0.21-1.92-0.04
			c-0.71-0.3-0.84-0.05-1.06,0.59c-1.43,4.15-3.69,7.7-7.61,9.97c-0.92,0.54-1.91,0.91-2.96,1.09c-0.79,0.14-1.21-0.19-1.1-1.01
			c0.14-1.09,0.33-2.18,0.5-3.26c0.05-0.3,0.23-0.66-0.07-0.86c-0.33-0.22-0.69-0.06-0.98,0.18c-0.72,0.59-1.41,1.21-2.13,1.79
			c-1.59,1.29-3.32,2.34-5.28,2.94c-1.25,0.38-1.41,0.18-1.15-1.08c0.16-0.77,0.29-1.55,0.48-2.56c-2.06,1.36-3.63,2.91-5.07,4.61
			c-0.23,0.27-0.34,1.31-1.09,0.29c-0.21-0.29-1.01-0.11-1.39,0.39c-0.63,0.84-0.24,2.33,0.75,2.7c0.83,0.31,0.02,0.66,0.05,0.99
			C319.92,169.91,319.53,172.25,319.83,174.56z"/>
		<path class="st2" d="M319.83,174.56c-0.41-1.85-0.08-3.73-0.2-5.59c-0.01-0.22,0.29-0.87-0.47-0.46
			c-0.13,0.07-0.41-0.34-0.38-0.59c0.06-0.51,0.6-0.01,0.78-0.32c0.33,0.17,0.34,0.48,0.33,0.79
			C319.87,170.45,319.85,172.51,319.83,174.56z"/>
		<path class="st3" d="M336.84,128.89c-1.82-1.22-3.63-2.45-5.58-3.76c1.18-0.72,2.21-1.35,3.37-2.05c-1-0.79-1.92-1.52-3.08-2.43
			c1.26-0.07,2.27,0.12,3.24,0.37c3.02,0.8,6.02,1.69,9.03,2.55c0.69,0.2,1.28,0.55,1.8,1.06c2.06,2.02,3.82,4.29,5.69,6.46
			c1.88,2.18,1.83,4.45,1.1,6.91c-0.79,2.62-2.25,4.45-5.2,4.99c-2.94,0.53-5.81,1.48-8.72,2.16c-2.26,0.53-4.33,0.13-6.23-1.36
			c-2.39-1.88-4.92-3.6-7.37-5.41c-1.58-1.17-3.17-1.33-4.92-0.33c-8.94,5.12-15.06,12.36-17.11,22.67
			c-0.64,3.24-0.81,6.47-0.04,9.72c0.27,1.13,0.84,1.73,2,1.96c2.62,0.51,4.65,2.04,6.45,3.92c1.96,2.05,4.22,3.6,7.07,4.15
			c2.46,0.47,4.73-0.31,6.99-1.04c2.34-0.76,4.65-1.62,6.96-2.46c3.09-1.13,5.81,0.36,6.55,3.57c0.31,1.35-0.06,2.45-1.06,3.35
			c-1.68,1.5-3.37,3-5.09,4.45c-2.35,1.97-5.22,2.47-8.14,2.76c-4.14,0.42-8.27,0.79-12.33-0.63c-1.03-0.36-1.89-0.86-2.65-1.65
			c-3.58-3.78-7.54-7.06-12.26-9.35c-0.14-0.07-0.26-0.17-0.69-0.46c2.19,0,4.05,0,6.18,0c-2.03-2.4-4.16-4.29-6.35-6.11
			c-8.09-6.74-17.38-11.18-27.36-14.3c-0.34-0.1-0.67-0.21-1.01-0.31c-0.07-0.05-0.09-0.11-0.07-0.17c0.02-0.06,0.04-0.09,0.06-0.09
			c6.95,0.72,13.58,2.58,19.92,5.49c3.83,1.75,7.4,3.93,10.76,6.46c0.24,0.18,0.49,0.34,0.89,0.63c-0.35-3.65-0.48-7.13,0.31-10.54
			c2.61-11.23,8.82-19.56,19.71-24.01c1.77-0.72,3.55-0.6,5.16,0.56c0.94,0.67,2,1.04,3.12,1.35c-0.13-2.1-1.06-3.27-3.22-3.6
			c-2.12-0.33-4.19-1.02-6.28-1.58c-0.47-0.12-0.87-0.28-0.95,0.41c-0.05,0.43-0.41,0.36-0.71,0.43
			c-11.26,2.61-17.59,9.95-20.01,20.96c-0.66,2.99-0.7,6.05-0.55,9.1c0.03,0.56,0,1.13,0,2.01c-3.95-3.64-8.21-6.39-12.8-9.34
			c2.19-0.03,3.94,0.6,5.85,0.67c-0.23-1.06-0.76-1.91-1.23-2.77c-3.22-5.91-8.26-9.91-13.93-13.25c-1.6-0.94-3.18-1.9-4.73-2.92
			c-1.72-1.14-1.72-2.07-0.13-3.42c1.94-1.64,4.29-1.96,6.69-2.12c1.66-0.11,3.31-0.19,5.35-0.31c-2.35-1.15-4.37-2.14-6.73-3.29
			c7.67-0.54,14.89,0.02,22.3,1.1c-0.86-1.27-1.97-1.98-3.01-2.74c-4.69-3.4-10.04-5.47-15.4-7.5c-1.93-0.73-3.87-1.46-6.04-2.28
			c1.05-0.75,1.96-1.46,2.93-2.08c0.68-0.43,0.88-0.73,0.13-1.31c-4.55-3.54-9.68-4.91-15.39-4.18c-1.22,0.16-1.7,0.85-1.43,2.03
			c0.36,1.63,0.75,3.25,1.17,5.08c-2.15-1.54-3.93-3.14-4.84-5.5c-0.78-2.02-0.07-3.61,2.04-4.23c7.19-2.13,14.3-1.72,21.3,0.87
			c1.57,0.58,3.09,1.3,4.66,1.88c0.96,0.35,1.2,0.83,0.65,1.72c-0.23,0.36-0.36,0.79-0.54,1.19c0.39,0.3,0.62-0.04,0.83-0.17
			c5.21-3.2,11.01-4.63,16.93-5.75c5.11-0.97,10.27-1.18,15.45-1.1c1.92,0.03,3.63,0.57,5.21,1.65c2.37,1.62,4.8,3.15,7.12,4.83
			c2.37,1.73,5.1,2.26,7.96,2.61c-0.27,0.66-0.99,0.67-1.38,1.29c5.94,1.66,11.59,3.99,17.2,6.7c-1.38,0.29-2.25,0.27-4.29-0.45
			c-6.63-2.36-13.43-3.95-20.6-4.96c0.94-0.56,1.71-1.01,2.57-1.52c-0.59-0.34-1.13-0.3-1.63-0.27c-2.01,0.1-3.73-0.5-5.14-1.95
			c-2.69-2.78-5.9-3.58-9.69-2.9c-2.95,0.54-5.92,0.97-8.78,1.92c-0.59,0.2-1.16,0.46-1.65,0.96c2.49,0,4.99,0,7.59,0
			c-0.24,0.93-1.21,1.1-1.58,1.92c3.15,0.54,6.26,1.08,9.37,1.62c1.56,0.27,3.13,0.55,4.69,0.84c0.71,0.13,1.33,0.49,1.85,0.98
			c1.18,1.11,2.35,2.23,3.62,3.44c-1.86,0.66-3.46,1.06-5.25,0.22c-1.58-0.75-3.31-1.18-4.97-1.76c-0.5-0.19-1.05-0.16-1.54-0.37
			c-0.08-0.04-0.16-0.07-0.24-0.11c-0.11-0.06-0.25-0.08-0.32-0.21c0.07,0.16,0.24,0.18,0.36,0.26c0.41,0.22,0.97,0.17,1.21,0.68
			c6.17,2.59,12.35,5.18,18.52,7.77C336.72,129.17,337.08,129.37,336.84,128.89z"/>
		<path class="st3" d="M338.28,158.87c0.26-2.49,0.51-4.91,0.78-7.55c-0.8,0.61-1.44,1.09-2.06,1.56c-0.4-0.39,0.02-0.84-0.29-1.2
			c-0.49,0.26-0.99,0.52-1.62,0.86c0-0.81,0-1.49,0-2.16c-1.61,2.74-2.52,5.89-5.6,7.84c0.51-2.55,0.93-4.9,0.91-7.31
			c-0.01-1.26-0.45-2.17-1.41-2.97c-2.5-2.08-5.14-3.86-8.52-4.36c1.72-1.7,3.82-1.99,5.7-0.85c2.07,1.26,4.16,2.49,6.18,3.82
			c1.87,1.24,3.84,1.93,6.1,1.74c0.97-0.08,1.94-0.06,2.91-0.08c1.91-0.04,1.95-0.03,1.6,1.79c-0.55,2.84-1.51,5.51-3.39,7.77
			C339.21,158.18,338.96,158.73,338.28,158.87z"/>
		<path class="st3" d="M359.71,131.99c0.61,6.39-3.3,10.44-7.52,14.45C351.15,141.59,354.78,134.76,359.71,131.99z"/>
		<path class="st4" d="M329.95,168.77c0.62,1.53,0.58,2.81,0.52,4.08c-0.03,0.76,0.18,1.06,0.94,0.85c0.08-0.02,0.17-0.04,0.26-0.04
			c2.39-0.07,4.05-1.12,4.83-3.46c0.14-0.41,0.28-0.93,0.84-1.24c0.83,2.29-0.14,4.34-0.63,6.73c-1.94-2.23-3.96-1.09-5.98-0.42
			c-2.32,0.77-4.65,1.51-7.12,2.1C328.02,176.26,328.17,172.06,329.95,168.77z"/>
		<path class="st4" d="M318.12,157.32c-3.31,5.06-5.17,10.46-4.24,16.73c-1.21-0.58-2.14-1.17-2.09-2.46
			c0.19-5.43,1.68-10.32,5.98-14.01C317.88,157.48,318,157.4,318.12,157.32z"/>
		<path class="st5" d="M316.46,115.53c-0.26-0.15-1.18,0.27-1.04-0.49c0.14-0.76,0.91-1.23,1.77-1.33c0.43-0.05,0.71,0.09,0.54,0.57
			C317.53,114.86,317.77,115.84,316.46,115.53z"/>
		<path class="st1" d="M317.01,120.58c0.54,0.09,1.08,0.22,1.53,0.56c-0.18,0.08-0.35,0.16-0.53,0.24
			c-0.44-0.18-0.89-0.35-1.33-0.53C316.65,120.6,316.71,120.45,317.01,120.58z"/>
		<path class="st1" d="M336.84,128.89c0.33,0.1,0.63,0.22,0.7,0.65c-0.4,0.03-0.74-0.07-1.01-0.37
			C336.63,129.07,336.74,128.98,336.84,128.89z"/>
		<path class="st6" d="M268.05,158.04c-0.01,0.08-0.01,0.17,0.01,0.25c-0.4,0.04-0.69-0.17-1.03-0.41
			C267.45,157.73,267.76,157.8,268.05,158.04z"/>
		<path class="st1" d="M297.87,119.31c3.32,6.09,9.06,8.96,14.31,12.41c-2.21,1.19-4.52,2.44-6.96,3.77c0.39-2.88-1.6-4.38-3.13-6.1
			c-0.88-0.99-1.89-1.86-2.66-2.95C297.95,124.37,297.39,122.09,297.87,119.31z"/>
		<path class="st1" d="M310.86,124.31c2.61,0.65,5.22,1.26,7.81,1.97c0.87,0.24,1.52,0.12,2.19-0.44c1.78-1.5,2.51-1.52,4.51-0.36
			c0.72,0.42,1.49,0.76,2.25,1.09c1.42,0.62,1.43,0.61,0.61,1.9c2.15,1.28,4.3,2.57,6.45,3.85c-0.03,0.08-0.07,0.16-0.1,0.25
			c-8.09-2.66-16.19-5.33-24.28-7.99C310.3,124.07,310.59,124.21,310.86,124.31z"/>
		<path class="st1" d="M317.47,131.51c0.08-0.16,0.17-0.31,0.24-0.47c0.42-0.96,0.39-2.44,1.25-2.77c0.71-0.27,1.85,0.55,2.79,0.9
			c1.11,0.42,2.23,0.82,3.32,1.29c0.85,0.36,2.02,0.35,2.07,1.76c0.01,0.27,0.64,0.55,1.02,0.75c1.04,0.55,2.1,1.07,2.98,2.02
			c-4.64-1-9.28-2.01-13.93-3.01C317.08,131.71,317.33,131.64,317.47,131.51z"/>
		<path class="st1" d="M317.47,131.51c-0.08,0.16-0.17,0.31-0.25,0.47c-0.62-0.13-1.24-0.26-1.87-0.39
			C316.09,131.1,316.77,131.6,317.47,131.51z"/>
		<path class="st1" d="M310.86,124.31c-0.18,0.09-0.36,0.17-0.55,0.26c-0.54-0.13-1.12-0.16-1.65-0.72
			C309.51,123.91,310.21,123.97,310.86,124.31z"/>
		<path class="st1" d="M314.8,119.93c-0.52,0.01-0.97-0.1-1.31-0.56C314.07,119.34,314.48,119.54,314.8,119.93z"/>
		<path class="st1" d="M317.01,120.58c-0.11,0.09-0.22,0.18-0.34,0.28c-0.34-0.13-0.68-0.27-1.28-0.51
			C316.2,120.06,316.6,120.34,317.01,120.58z"/>
		<path class="st1" d="M313.48,130.99c0.46,0,0.95-0.12,1.39,0.35c-0.54,0.24-0.95-0.15-1.39-0.13c-0.09-0.05-0.12-0.09-0.09-0.14
			S313.45,130.99,313.48,130.99z"/>
		<path class="st1" d="M313.48,130.99c0,0.07,0,0.14,0,0.21c-0.39,0.03-0.68-0.18-1.04-0.38
			C312.87,130.67,313.17,130.86,313.48,130.99z"/>
	</g>
</g>
</svg>
